# Blender 4.4.3
# www.blender.org
mtllib asan_map.mtl
o Plane
v -9.799999 0.000000 2.725000
v 9.959999 0.000000 2.725000
v -9.799999 0.000000 -5.025000
v 9.959999 0.000000 -5.025000
v -9.999999 0.000000 2.925000
v 10.159999 0.000000 2.925000
v -9.999999 0.000000 -5.224999
v 10.159999 0.000000 -5.224999
v -9.799999 2.700000 -5.025000
v -9.799999 2.700000 2.725000
v 9.959999 2.700000 2.725000
v 9.959999 2.700000 -5.025000
v -9.999999 2.700000 -5.224999
v -9.999999 2.700000 2.925000
v 10.159999 2.700000 2.925000
v 10.159999 2.700000 -5.224999
v 0.601200 0.000000 2.093978
v 0.601200 0.000000 2.585159
v 0.601200 0.000000 2.725000
v 1.316200 0.000000 2.093978
v 1.316200 0.000000 2.552477
v 1.316200 0.000000 2.725000
v 0.601200 0.000000 2.925000
v 1.316200 0.000000 2.925000
vn -0.0000 -1.0000 -0.0000
vn -0.0000 1.0000 -0.0000
vn 1.0000 -0.0000 -0.0000
vn -1.0000 -0.0000 -0.0000
vn -0.7071 -0.0000 -0.7071
vn -0.0000 -0.0000 -1.0000
vn 0.7071 -0.0000 -0.7071
vn -0.0000 -0.0000 1.0000
vt 0.000000 0.000000
vt 0.000000 1.000000
vt 1.000000 1.000000
vt 1.000000 0.000000
vt 0.562561 0.000000
vt 0.562561 0.022261
vt 0.562561 0.081422
vt 0.526377 0.081422
vt 0.526377 0.018044
vt 0.526377 0.000000
vt 0.561319 0.045708
vt 0.561319 0.000000
vt 0.525853 0.000000
vt 0.525853 0.041698
vt 0.525853 0.101966
vt 0.561319 0.101966
s 0
usemtl Material.003
f 1/1/1 3/2/1 4/3/1 2/4/1 22/5/1 21/6/1 20/7/1 17/8/1 18/9/1 19/10/1
f 18/9/1 17/8/1 20/7/1 21/6/1 22/5/1 19/10/1
f 21/11/2 24/12/2 6/4/2 8/3/2 7/2/2 5/1/2 23/13/2 18/14/2 17/15/2 20/16/2
f 21/11/2 20/16/2 17/15/2 18/14/2 23/13/2 24/12/2
f 5/1/3 7/2/3 13/2/3 14/1/3
f 8/3/4 6/4/4 15/4/4 16/3/4
f 1/1/5 5/1/5 14/1/5 10/1/5
f 4/3/6 3/2/6 9/2/6 12/3/6
f 11/4/1 12/3/1 16/3/1 15/4/1
f 9/2/1 10/1/1 14/1/1 13/2/1
f 12/3/1 9/2/1 13/2/1 16/3/1
f 11/4/7 15/4/7 6/4/7 2/4/7
f 2/4/3 4/3/3 12/3/3 11/4/3
f 3/2/4 1/1/4 10/1/4 9/2/4
f 7/2/8 8/3/8 16/3/8 13/2/8
o Plane.002
v -6.090001 0.000000 2.725000
v -6.090001 0.000000 -3.775000
v -6.290001 0.000000 2.725000
v -6.290001 0.000000 -3.775000
v -6.090001 2.700000 2.725000
v -6.090001 2.700000 -3.775000
v -6.290001 2.700000 2.725000
v -6.290001 2.700000 -3.775000
v -6.090001 0.000000 -3.575000
v -6.290001 0.000000 -3.575000
v -6.090001 2.700000 -3.575000
v -6.290001 2.700000 -3.575000
v -9.800000 0.000000 -3.575000
v -9.800000 0.000000 -3.775000
v -9.800000 2.700000 -3.575000
v -9.800000 2.700000 -3.775000
v -6.090001 0.000000 1.606356
v -6.290001 0.000000 1.606356
v -6.090001 2.300000 1.606356
v -6.290001 2.300000 1.606356
v -6.090001 2.300000 2.321356
v -6.290001 2.300000 2.321356
v -6.090001 0.000000 2.321356
v -6.290001 0.000000 2.321356
vn -0.0000 1.0000 -0.0000
vn -0.0000 -1.0000 -0.0000
vn -0.0000 -0.0000 1.0000
vn -1.0000 -0.0000 -0.0000
vn -0.0000 -0.0000 -1.0000
vn 1.0000 -0.0000 -0.0000
vt 0.000000 0.000000
s 0
usemtl Material.003
f 33/17/9 34/17/9 42/17/9 41/17/9
f 35/17/10 29/17/10 31/17/10 36/17/10
f 28/17/11 26/17/11 30/17/11 32/17/11
f 33/17/12 41/17/12 43/17/12 45/17/12 47/17/12 25/17/12 29/17/12 35/17/12
f 25/17/13 27/17/13 31/17/13 29/17/13
f 28/17/11 32/17/11 40/17/11 38/17/11
f 27/17/14 48/17/14 46/17/14 44/17/14 42/17/14 34/17/14 36/17/14 31/17/14
f 26/17/12 33/17/12 35/17/12 30/17/12
f 30/17/10 35/17/10 36/17/10 32/17/10
f 26/17/9 28/17/9 34/17/9 33/17/9
f 37/17/14 38/17/14 40/17/14 39/17/14
f 32/17/10 36/17/10 39/17/10 40/17/10
f 36/17/13 34/17/13 37/17/13 39/17/13
f 34/17/9 28/17/9 38/17/9 37/17/9
f 44/17/13 43/17/13 41/17/13 42/17/13
f 43/17/9 44/17/9 46/17/9 45/17/9
f 47/17/9 48/17/9 27/17/9 25/17/9
f 45/17/11 46/17/11 48/17/11 47/17/11
o Plane.003
v -6.090001 0.000000 -3.775000
v -6.090001 0.000000 -5.025000
v -6.290001 0.000000 -3.775000
v -6.290001 0.000000 -5.025000
v -6.090001 2.700000 -3.775000
v -6.090001 2.700000 -5.025000
v -6.290001 2.700000 -3.775000
v -6.290001 2.700000 -5.025000
v -6.090001 0.000000 -4.661294
v -6.290001 0.000000 -4.661294
v -6.290001 2.300000 -4.661294
v -6.090001 2.300000 -4.661294
v -6.290001 2.300000 -3.946295
v -6.090001 2.300000 -3.946295
v -6.090001 0.000000 -3.946295
v -6.290001 0.000000 -3.946295
vn -0.0000 1.0000 -0.0000
vn -0.0000 -1.0000 -0.0000
vn -0.0000 -0.0000 1.0000
vn -1.0000 -0.0000 -0.0000
vn -0.0000 -0.0000 -1.0000
vn 1.0000 -0.0000 -0.0000
vt 0.000000 0.000000
s 0
usemtl Material.003
f 50/18/15 52/18/15 58/18/15 57/18/15
f 54/18/16 53/18/16 55/18/16 56/18/16
f 52/18/17 50/18/17 54/18/17 56/18/17
f 50/18/18 57/18/18 60/18/18 62/18/18 63/18/18 49/18/18 53/18/18 54/18/18
f 49/18/19 51/18/19 55/18/19 53/18/19
f 51/18/20 64/18/20 61/18/20 59/18/20 58/18/20 52/18/20 56/18/20 55/18/20
f 59/18/19 60/18/19 57/18/19 58/18/19
f 60/18/15 59/18/15 61/18/15 62/18/15
f 63/18/15 64/18/15 51/18/15 49/18/15
f 62/18/17 61/18/17 64/18/17 63/18/17
o Plane.005
v -4.710001 0.000000 2.725000
v -4.710001 0.000000 -3.775000
v -1.150002 0.000000 -3.775000
v -4.510001 0.000000 2.725000
v -4.510001 0.000000 -3.775000
v -4.710001 0.000000 -3.575000
v -1.150002 0.000000 -3.575000
v -4.710001 2.700000 -3.775000
v -4.710001 2.700000 2.725000
v -1.150002 2.700000 -3.775000
v -4.510001 2.700000 -3.775000
v -4.510001 2.700000 2.725000
v -1.150002 2.700000 -3.575000
v -4.710001 2.700000 -3.575000
v -4.510001 0.000000 1.606356
v -4.710001 0.000000 1.606356
v -4.510001 2.300000 1.606356
v -4.710001 2.300000 1.606356
v -4.510001 2.300000 2.321356
v -4.710001 2.300000 2.321356
v -4.510001 0.000000 2.321356
v -4.710001 0.000000 2.321356
vn -0.0000 1.0000 -0.0000
vn -0.0000 -1.0000 -0.0000
vn 1.0000 -0.0000 -0.0000
vn -1.0000 -0.0000 -0.0000
vn -0.0000 -0.0000 -1.0000
vn -0.0000 -0.0000 1.0000
vt 0.000000 0.000000
s 0
usemtl Material.003
f 65/19/21 68/19/21 85/19/21 86/19/21
f 66/19/21 70/19/21 71/19/21 67/19/21
f 73/19/22 72/19/22 75/19/22 76/19/22
f 72/19/22 74/19/22 77/19/22 78/19/22
f 65/19/23 86/19/23 84/19/23 82/19/23 80/19/23 66/19/23 72/19/23 73/19/23
f 67/19/24 71/19/24 77/19/24 74/19/24
f 71/19/25 70/19/25 78/19/25 77/19/25
f 68/19/25 65/19/25 73/19/25 76/19/25
f 66/19/26 67/19/26 74/19/26 72/19/26
f 70/19/23 66/19/23 72/19/23 78/19/23
f 66/19/26 69/19/26 75/19/26 72/19/26
f 69/19/24 79/19/24 81/19/24 83/19/24 85/19/24 68/19/24 76/19/24 75/19/24
f 82/19/25 81/19/25 79/19/25 80/19/25
f 81/19/21 82/19/21 84/19/21 83/19/21
f 80/19/21 79/19/21 69/19/21 66/19/21
f 83/19/26 84/19/26 86/19/26 85/19/26
o Plane.006
v -0.990001 0.000000 2.725000
v -0.990001 0.000000 -3.775000
v -1.150001 0.000000 2.725000
v -1.150001 0.000000 -3.775000
v -0.990001 2.700000 2.725000
v -0.990001 2.700000 -3.775000
v -1.150001 2.700000 2.725000
v -1.150001 2.700000 -3.775000
vn -0.0000 1.0000 -0.0000
vn -0.0000 -1.0000 -0.0000
vn -0.0000 -0.0000 1.0000
vn -1.0000 -0.0000 -0.0000
vn -0.0000 -0.0000 -1.0000
vn 1.0000 -0.0000 -0.0000
vt 0.000000 0.000000
s 0
usemtl Material.003
f 88/20/27 90/20/27 89/20/27 87/20/27
f 92/20/28 91/20/28 93/20/28 94/20/28
f 90/20/29 88/20/29 92/20/29 94/20/29
f 88/20/30 87/20/30 91/20/30 92/20/30
f 87/20/31 89/20/31 93/20/31 91/20/31
f 89/20/32 90/20/32 94/20/32 93/20/32
o Plane.007
v -0.990001 2.300000 -3.775000
v -0.990001 2.300000 -4.490000
v -1.150001 2.300000 -3.775000
v -1.150001 2.300000 -4.490000
v -0.990001 2.700000 -3.775000
v -0.990001 2.700000 -4.490000
v -1.150001 2.700000 -3.775000
v -1.150001 2.700000 -4.490000
vn -0.0000 1.0000 -0.0000
vn -0.0000 -1.0000 -0.0000
vn -0.0000 -0.0000 1.0000
vn -1.0000 -0.0000 -0.0000
vn -0.0000 -0.0000 -1.0000
vn 1.0000 -0.0000 -0.0000
vt 0.000000 0.000000
s 0
usemtl Material.003
f 96/21/33 98/21/33 97/21/33 95/21/33
f 100/21/34 99/21/34 101/21/34 102/21/34
f 98/21/35 96/21/35 100/21/35 102/21/35
f 96/21/36 95/21/36 99/21/36 100/21/36
f 95/21/37 97/21/37 101/21/37 99/21/37
f 97/21/38 98/21/38 102/21/38 101/21/38
o Plane.008
v -1.150002 0.000000 -4.490000
v -1.150002 0.000000 -5.025000
v -2.037003 0.000000 -4.490000
v -2.037003 0.000000 -5.025000
v -1.150002 2.700000 -4.490000
v -1.150002 2.700000 -5.025000
v -2.037003 2.700000 -4.490000
v -2.037003 2.700000 -5.025000
vn -0.0000 1.0000 -0.0000
vn -0.0000 -1.0000 -0.0000
vn -0.0000 -0.0000 1.0000
vn -1.0000 -0.0000 -0.0000
vn -0.0000 -0.0000 -1.0000
vn 1.0000 -0.0000 -0.0000
vt 0.000000 0.000000
s 0
usemtl Material.003
f 104/22/39 106/22/39 105/22/39 103/22/39
f 108/22/40 107/22/40 109/22/40 110/22/40
f 106/22/41 104/22/41 108/22/41 110/22/41
f 104/22/42 103/22/42 107/22/42 108/22/42
f 103/22/43 105/22/43 109/22/43 107/22/43
f 105/22/44 106/22/44 110/22/44 109/22/44
o Plane.009
v -0.990001 0.000000 -4.490000
v -0.990001 0.000000 -5.025000
v -1.150001 0.000000 -4.490000
v -1.150001 0.000000 -5.025000
v -0.990001 2.700000 -4.490000
v -0.990001 2.700000 -5.025000
v -1.150001 2.700000 -4.490000
v -1.150001 2.700000 -5.025000
vn -0.0000 1.0000 -0.0000
vn -0.0000 -1.0000 -0.0000
vn -0.0000 -0.0000 1.0000
vn -1.0000 -0.0000 -0.0000
vn -0.0000 -0.0000 -1.0000
vn 1.0000 -0.0000 -0.0000
vt 0.000000 0.000000
s 0
usemtl Material.003
f 112/23/45 114/23/45 113/23/45 111/23/45
f 116/23/46 115/23/46 117/23/46 118/23/46
f 114/23/47 112/23/47 116/23/47 118/23/47
f 112/23/48 111/23/48 115/23/48 116/23/48
f 111/23/49 113/23/49 117/23/49 115/23/49
f 113/23/50 114/23/50 118/23/50 117/23/50
o Plane.011
v 6.860001 0.000000 -1.925000
v 9.960000 0.000000 -1.925000
v 6.860001 0.000000 -5.025001
v 6.860001 0.000000 -2.125000
v 9.960000 0.000000 -2.125000
v 7.060000 0.000000 -1.925000
v 7.060000 0.000000 -5.025001
v 6.860001 2.700000 -5.025001
v 6.860001 2.700000 -1.925000
v 9.960000 2.700000 -1.925000
v 6.860001 2.700000 -2.125000
v 9.960000 2.700000 -2.125000
v 7.060000 2.700000 -5.025001
v 7.060000 2.700000 -1.925000
v 8.136935 0.000000 -2.125000
v 8.136935 2.300000 -2.125000
v 8.136935 2.300000 -1.925001
v 8.136935 0.000000 -1.925000
v 7.421936 2.300000 -2.125000
v 7.421936 2.300000 -1.925000
v 7.421936 0.000000 -2.125000
v 7.421936 0.000000 -1.925000
vn -0.0000 1.0000 -0.0000
vn -0.0000 -1.0000 -0.0000
vn -0.0000 -0.0000 -1.0000
vn 1.0000 -0.0000 -0.0000
vn -0.0000 -0.0000 1.0000
vn -1.0000 -0.0000 -0.0000
vt 0.000000 0.000000
s 0
usemtl Material.003
f 120/24/51 123/24/51 133/24/51 136/24/51
f 119/24/51 124/24/51 125/24/51 121/24/51
f 128/24/52 127/24/52 129/24/52 130/24/52
f 127/24/52 126/24/52 131/24/52 132/24/52
f 124/24/53 119/24/53 127/24/53 132/24/53
f 119/24/54 122/24/54 129/24/54 127/24/54
f 122/24/55 139/24/55 137/24/55 134/24/55 133/24/55 123/24/55 130/24/55 129/24/55
f 119/24/54 121/24/54 126/24/54 127/24/54
f 121/24/55 125/24/55 131/24/55 126/24/55
f 125/24/56 124/24/56 132/24/56 131/24/56
f 123/24/56 120/24/56 128/24/56 130/24/56
f 120/24/53 136/24/53 135/24/53 138/24/53 140/24/53 119/24/53 127/24/53 128/24/53
f 134/24/54 135/24/54 136/24/54 133/24/54
f 135/24/51 134/24/51 137/24/51 138/24/51
f 140/24/51 139/24/51 122/24/51 119/24/51
f 138/24/56 137/24/56 139/24/56 140/24/56
o Plane.013
v 1.460000 0.000000 -1.925000
v 6.860001 0.000000 -1.925000
v 1.460000 0.000000 -5.025001
v 1.660001 0.000000 -1.925000
v 1.660001 0.000000 -5.025001
v 1.460000 0.000000 -2.125000
v 6.860001 0.000000 -2.125000
v 1.460000 2.700000 -5.025001
v 1.460000 2.700000 -1.925000
v 6.860001 2.700000 -1.925000
v 1.660001 2.700000 -5.025001
v 1.660001 2.700000 -1.925000
v 1.460000 2.700000 -2.125000
v 6.860001 2.700000 -2.125000
v 5.673597 0.000000 -1.925000
v 5.673597 0.000000 -2.125000
v 5.673598 2.300000 -2.125000
v 5.673597 2.300000 -1.925000
v 6.388597 2.300000 -2.125000
v 6.388597 2.300000 -1.925000
v 6.388597 0.000000 -1.925000
v 6.388597 0.000000 -2.125000
vn -0.0000 1.0000 -0.0000
vn -0.0000 -1.0000 -0.0000
vn -1.0000 -0.0000 -0.0000
vn -0.0000 -0.0000 1.0000
vn 1.0000 -0.0000 -0.0000
vn -0.0000 -0.0000 -1.0000
vt 0.000000 0.000000
s 0
usemtl Material.003
f 141/25/57 144/25/57 145/25/57 143/25/57
f 142/25/57 147/25/57 162/25/57 161/25/57
f 149/25/58 148/25/58 151/25/58 152/25/58
f 150/25/58 149/25/58 153/25/58 154/25/58
f 147/25/59 142/25/59 150/25/59 154/25/59
f 143/25/60 145/25/60 151/25/60 148/25/60
f 145/25/59 144/25/59 152/25/59 151/25/59
f 141/25/61 143/25/61 148/25/61 149/25/61
f 141/25/61 146/25/61 153/25/61 149/25/61
f 146/25/60 156/25/60 157/25/60 159/25/60 162/25/60 147/25/60 154/25/60 153/25/60
f 144/25/62 141/25/62 149/25/62 152/25/62
f 142/25/62 161/25/62 160/25/62 158/25/62 155/25/62 141/25/62 149/25/62 150/25/62
f 158/25/59 157/25/59 156/25/59 155/25/59
f 157/25/57 158/25/57 160/25/57 159/25/57
f 155/25/57 156/25/57 146/25/57 141/25/57
f 159/25/61 160/25/61 161/25/61 162/25/61
o Cube
v 1.459999 0.000000 1.274999
v 1.459999 1.200000 1.274999
v 1.459999 0.000000 -0.525000
v 1.459999 1.200000 -0.525000
v 2.359999 0.000000 1.274999
v 2.359999 1.200000 1.274999
v 2.359999 0.000000 -0.525000
v 2.359999 1.200000 -0.525000
vn -1.0000 -0.0000 -0.0000
vn -0.0000 -0.0000 -1.0000
vn 1.0000 -0.0000 -0.0000
vn -0.0000 -0.0000 1.0000
vn -0.0000 -1.0000 -0.0000
vn -0.0000 1.0000 -0.0000
vt 0.375000 0.000000
vt 0.625000 0.000000
vt 0.625000 0.250000
vt 0.375000 0.250000
vt 0.625000 0.500000
vt 0.375000 0.500000
vt 0.625000 0.750000
vt 0.375000 0.750000
vt 0.625000 1.000000
vt 0.375000 1.000000
vt 0.125000 0.500000
vt 0.125000 0.750000
vt 0.875000 0.500000
vt 0.875000 0.750000
s 0
usemtl Material.003
f 163/26/63 164/27/63 166/28/63 165/29/63
f 165/29/64 166/28/64 170/30/64 169/31/64
f 169/31/65 170/30/65 168/32/65 167/33/65
f 167/33/66 168/32/66 164/34/66 163/35/66
f 165/36/67 169/31/67 167/33/67 163/37/67
f 170/30/68 166/38/68 164/39/68 168/32/68
o Cube.002
v 8.660000 0.000000 0.625000
v 8.660000 1.200000 0.625000
v 6.860000 0.000000 0.625000
v 6.860000 1.200000 0.625000
v 8.660000 0.000000 -0.275000
v 8.660000 1.200000 -0.275000
v 6.860000 0.000000 -0.275000
v 6.860000 1.200000 -0.275000
vn -0.0000 -0.0000 1.0000
vn -1.0000 -0.0000 -0.0000
vn -0.0000 -0.0000 -1.0000
vn 1.0000 -0.0000 -0.0000
vn -0.0000 -1.0000 -0.0000
vn -0.0000 1.0000 -0.0000
vt 0.375000 0.000000
vt 0.625000 0.000000
vt 0.625000 0.250000
vt 0.375000 0.250000
vt 0.625000 0.500000
vt 0.375000 0.500000
vt 0.625000 0.750000
vt 0.375000 0.750000
vt 0.625000 1.000000
vt 0.375000 1.000000
vt 0.125000 0.500000
vt 0.125000 0.750000
vt 0.875000 0.500000
vt 0.875000 0.750000
s 0
usemtl Material.003
f 171/40/69 172/41/69 174/42/69 173/43/69
f 173/43/70 174/42/70 178/44/70 177/45/70
f 177/45/71 178/44/71 176/46/71 175/47/71
f 175/47/72 176/46/72 172/48/72 171/49/72
f 173/50/73 177/45/73 175/47/73 171/51/73
f 178/44/74 174/52/74 172/53/74 176/46/74
o Cube.003
v 9.960000 0.000000 -1.925000
v 9.960000 1.200000 -1.925000
v 9.960000 0.000000 -1.295000
v 9.960000 1.200000 -1.295000
v 8.940000 0.000000 -1.925000
v 8.940000 1.200000 -1.925000
v 8.940000 0.000000 -1.295000
v 8.940000 1.200000 -1.295000
vn 1.0000 -0.0000 -0.0000
vn -0.0000 -0.0000 1.0000
vn -1.0000 -0.0000 -0.0000
vn -0.0000 -0.0000 -1.0000
vn -0.0000 -1.0000 -0.0000
vn -0.0000 1.0000 -0.0000
vt 0.375000 0.000000
vt 0.625000 0.000000
vt 0.625000 0.250000
vt 0.375000 0.250000
vt 0.625000 0.500000
vt 0.375000 0.500000
vt 0.625000 0.750000
vt 0.375000 0.750000
vt 0.625000 1.000000
vt 0.375000 1.000000
vt 0.125000 0.500000
vt 0.125000 0.750000
vt 0.875000 0.500000
vt 0.875000 0.750000
s 0
usemtl Material.003
f 179/54/75 180/55/75 182/56/75 181/57/75
f 181/57/76 182/56/76 186/58/76 185/59/76
f 185/59/77 186/58/77 184/60/77 183/61/77
f 183/61/78 184/60/78 180/62/78 179/63/78
f 181/64/79 185/59/79 183/61/79 179/65/79
f 186/58/80 182/66/80 180/67/80 184/60/80
o Cube.004
v 1.459999 0.000000 -5.025001
v 1.459999 2.212447 -5.025001
v 1.460000 0.000000 -2.295001
v 1.460000 2.212447 -2.295001
v 1.049999 0.000000 -5.025000
v 1.049999 2.212447 -5.025000
v 1.050000 0.000000 -2.295000
v 1.050000 2.212447 -2.295000
vn 1.0000 -0.0000 -0.0000
vn -0.0000 -0.0000 1.0000
vn -1.0000 -0.0000 -0.0000
vn -0.0000 -0.0000 -1.0000
vn -0.0000 -1.0000 -0.0000
vn -0.0000 1.0000 -0.0000
vt 0.375000 0.000000
vt 0.625000 0.000000
vt 0.625000 0.250000
vt 0.375000 0.250000
vt 0.625000 0.500000
vt 0.375000 0.500000
vt 0.625000 0.750000
vt 0.375000 0.750000
vt 0.625000 1.000000
vt 0.375000 1.000000
vt 0.125000 0.500000
vt 0.125000 0.750000
vt 0.875000 0.500000
vt 0.875000 0.750000
s 0
usemtl Material.003
f 187/68/81 188/69/81 190/70/81 189/71/81
f 189/71/82 190/70/82 194/72/82 193/73/82
f 193/73/83 194/72/83 192/74/83 191/75/83
f 191/75/84 192/74/84 188/76/84 187/77/84
f 189/78/85 193/73/85 191/75/85 187/79/85
f 194/72/86 190/80/86 188/81/86 192/74/86
o Cube.005
v 9.960000 0.000000 2.255001
v 9.960000 2.700000 2.255001
v 9.960000 0.000000 2.725001
v 9.960000 2.700000 2.725001
v 6.020000 0.000000 2.255002
v 6.020000 2.700000 2.255002
v 6.020000 0.000000 2.725002
v 6.020000 2.700000 2.725002
vn 1.0000 -0.0000 -0.0000
vn -0.0000 -0.0000 1.0000
vn -1.0000 -0.0000 -0.0000
vn -0.0000 -0.0000 -1.0000
vn -0.0000 -1.0000 -0.0000
vn -0.0000 1.0000 -0.0000
vt 0.375000 0.000000
vt 0.625000 0.000000
vt 0.625000 0.250000
vt 0.375000 0.250000
vt 0.625000 0.500000
vt 0.375000 0.500000
vt 0.625000 0.750000
vt 0.375000 0.750000
vt 0.625000 1.000000
vt 0.375000 1.000000
vt 0.125000 0.500000
vt 0.125000 0.750000
vt 0.875000 0.500000
vt 0.875000 0.750000
s 0
usemtl Material.003
f 195/82/87 196/83/87 198/84/87 197/85/87
f 197/85/88 198/84/88 202/86/88 201/87/88
f 201/87/89 202/86/89 200/88/89 199/89/89
f 199/89/90 200/88/90 196/90/90 195/91/90
f 197/92/91 201/87/91 199/89/91 195/93/91
f 202/86/92 198/94/92 196/95/92 200/88/92
o Cube.001
v 4.159999 0.000000 1.274999
v 4.159999 1.200000 1.274999
v 4.159999 0.000000 -0.525000
v 4.159999 1.200000 -0.525000
v 5.059999 0.000000 1.274999
v 5.059999 1.200000 1.274999
v 5.059999 0.000000 -0.525000
v 5.059999 1.200000 -0.525000
vn -1.0000 -0.0000 -0.0000
vn -0.0000 -0.0000 -1.0000
vn 1.0000 -0.0000 -0.0000
vn -0.0000 -0.0000 1.0000
vn -0.0000 -1.0000 -0.0000
vn -0.0000 1.0000 -0.0000
vt 0.375000 0.000000
vt 0.625000 0.000000
vt 0.625000 0.250000
vt 0.375000 0.250000
vt 0.625000 0.500000
vt 0.375000 0.500000
vt 0.625000 0.750000
vt 0.375000 0.750000
vt 0.625000 1.000000
vt 0.375000 1.000000
vt 0.125000 0.500000
vt 0.125000 0.750000
vt 0.875000 0.500000
vt 0.875000 0.750000
s 0
usemtl Material.003
f 203/96/93 204/97/93 206/98/93 205/99/93
f 205/99/94 206/98/94 210/100/94 209/101/94
f 209/101/95 210/100/95 208/102/95 207/103/95
f 207/103/96 208/102/96 204/104/96 203/105/96
f 205/106/97 209/101/97 207/103/97 203/107/97
f 210/100/98 206/108/98 204/109/98 208/102/98
o Plane.014
v -0.990002 0.000000 5.345000
v 9.960000 0.000000 5.345000
v -0.990002 0.000000 2.925000
v 9.960000 0.000000 2.925000
v -1.150002 0.000000 2.925000
v -1.150002 0.000000 5.545000
v 10.160000 0.000000 5.545000
v 10.160000 0.000000 2.925000
v -0.990002 2.700000 2.925000
v -0.990002 2.700000 5.345000
v 9.960000 2.700000 5.345000
v 9.960000 2.700000 2.925000
v -1.150002 2.700000 2.925000
v -1.150002 2.700000 5.545000
v 10.160000 2.700000 5.545000
v 10.160000 2.700000 2.925000
vn -0.0000 1.0000 -0.0000
vn -0.0000 -1.0000 -0.0000
vn -0.0000 -0.0000 -1.0000
vn -0.0000 -0.0000 1.0000
vn 1.0000 -0.0000 -0.0000
vn -1.0000 -0.0000 -0.0000
vt 0.000000 0.000000
vt 1.000000 0.000000
vt 1.000000 1.000000
vt 0.000000 1.000000
s 0
usemtl Material.003
f 211/110/99 212/111/99 214/112/99 213/113/99
f 216/110/100 215/113/100 218/112/100 217/111/100
f 213/113/99 214/112/99 218/112/99 215/113/99
f 218/112/101 214/112/101 222/112/101 226/112/101
f 212/111/101 211/110/101 220/110/101 221/111/101
f 216/110/102 217/111/102 225/111/102 224/110/102
f 221/111/99 220/110/99 224/110/99 225/111/99
f 222/112/99 221/111/99 225/111/99 226/112/99
f 220/110/99 219/113/99 223/113/99 224/110/99
f 217/111/103 218/112/103 226/112/103 225/111/103
f 215/113/104 216/110/104 224/110/104 223/113/104
f 214/112/104 212/111/104 221/111/104 222/112/104
f 211/110/103 213/113/103 219/113/103 220/110/103
f 213/113/101 215/113/101 223/113/101 219/113/101
o Plane.015
v 1.659999 0.000000 5.345000
v 1.659999 0.000000 2.925000
v 1.859999 0.000000 5.345000
v 1.859999 0.000000 2.925000
v 1.659999 2.700000 2.925000
v 1.659999 2.700000 5.345000
v 1.859999 2.700000 2.925000
v 1.859999 2.700000 5.345000
vn -0.0000 1.0000 -0.0000
vn -0.0000 -1.0000 -0.0000
vn -0.0000 -0.0000 -1.0000
vn 1.0000 -0.0000 -0.0000
vn -0.0000 -0.0000 1.0000
vn -1.0000 -0.0000 -0.0000
vt 0.000000 0.000000
s 0
usemtl Material.003
f 227/114/105 229/114/105 230/114/105 228/114/105
f 232/114/106 231/114/106 233/114/106 234/114/106
f 229/114/107 227/114/107 232/114/107 234/114/107
f 227/114/108 228/114/108 231/114/108 232/114/108
f 228/114/109 230/114/109 233/114/109 231/114/109
f 230/114/110 229/114/110 234/114/110 233/114/110
o Plane.016
v 4.360000 0.000000 5.345000
v 4.360000 0.000000 2.925000
v 4.559999 0.000000 5.345000
v 4.559999 0.000000 2.925000
v 4.360000 2.700000 2.925000
v 4.360000 2.700000 5.345000
v 4.559999 2.700000 2.925000
v 4.559999 2.700000 5.345000
vn -0.0000 1.0000 -0.0000
vn -0.0000 -1.0000 -0.0000
vn -0.0000 -0.0000 -1.0000
vn 1.0000 -0.0000 -0.0000
vn -0.0000 -0.0000 1.0000
vn -1.0000 -0.0000 -0.0000
vt 0.000000 0.000000
s 0
usemtl Material.003
f 235/115/111 237/115/111 238/115/111 236/115/111
f 240/115/112 239/115/112 241/115/112 242/115/112
f 237/115/113 235/115/113 240/115/113 242/115/113
f 235/115/114 236/115/114 239/115/114 240/115/114
f 236/115/115 238/115/115 241/115/115 239/115/115
f 238/115/116 237/115/116 242/115/116 241/115/116
o Plane.017
v -9.800000 0.000000 2.725000
v 9.960000 0.000000 2.725000
v -10.000000 0.000000 2.925000
v 10.160000 0.000000 2.925000
l 243 244
l 246 245
l 245 243
l 244 246
o Plane.018
v -9.800000 0.000000 2.725000
v 9.960000 0.000000 2.725000
v -10.000000 0.000000 2.925000
v 10.160000 0.000000 2.925000
v -9.800000 2.700000 2.725000
v 9.960000 2.700000 2.725000
v 10.160000 2.700000 2.925000
v -10.000000 2.700000 2.925000
v 4.164336 0.000000 2.725000
v 4.164336 2.300000 2.925000
v 4.164338 0.000000 2.925000
v 4.164336 2.300000 2.725000
v 3.449336 2.300000 2.925000
v 3.449336 2.300000 2.725000
v 3.449338 0.000000 2.725000
v 3.449336 0.000000 2.925000
v 5.537102 2.300000 2.925000
v 5.537102 2.300000 2.725000
v 5.537102 0.000000 2.725000
v 5.537102 0.000000 2.925000
v 4.822102 2.300000 2.925000
v 4.822102 2.300000 2.725000
v 4.822103 0.000000 2.725000
v 4.822102 0.000000 2.925000
v 1.316199 2.289627 2.725001
v 1.316199 2.289626 2.925000
v 1.316199 0.000000 2.925000
v 1.316200 0.000000 2.725000
v 0.601199 2.289626 2.725000
v 0.601199 2.289626 2.925000
v 0.601199 0.000000 2.925000
v 0.601199 0.000000 2.725000
vn -0.0000 -1.0000 -0.0000
vn -0.0000 1.0000 -0.0000
vn -0.7071 -0.0000 -0.7071
vn -0.0000 -0.0000 -1.0000
vn 0.7071 -0.0000 -0.7071
vn -0.0000 -0.0000 1.0000
vn 1.0000 -0.0000 -0.0000
vn -1.0000 -0.0000 -0.0000
vt 0.000000 0.000000
s 0
usemtl Material.003
f 247/116/117 278/116/117 277/116/117 249/116/117
f 251/116/118 254/116/118 253/116/118 252/116/118
f 247/116/119 249/116/119 254/116/119 251/116/119
f 248/116/120 265/116/120 264/116/120 268/116/120 269/116/120 255/116/120 258/116/120 260/116/120 261/116/120 274/116/120 271/116/120 275/116/120 278/116/120 247/116/120 251/116/120 252/116/120
f 250/116/121 248/116/121 252/116/121 253/116/121
f 249/116/122 277/116/122 276/116/122 272/116/122 273/116/122 262/116/122 259/116/122 256/116/122 257/116/122 270/116/122 267/116/122 263/116/122 266/116/122 250/116/122 253/116/122 254/116/122
f 258/116/123 256/116/123 257/116/123 255/116/123
f 256/116/118 258/116/118 260/116/118 259/116/118
f 257/116/117 255/116/117 269/116/117 270/116/117
f 259/116/124 260/116/124 261/116/124 262/116/124
f 264/116/123 263/116/123 266/116/123 265/116/123
f 263/116/118 264/116/118 268/116/118 267/116/118
f 267/116/124 268/116/124 269/116/124 270/116/124
f 266/116/117 265/116/117 248/116/117 250/116/117
f 271/116/123 272/116/123 273/116/123 274/116/123
f 272/116/118 271/116/118 275/116/118 276/116/118
f 273/116/117 274/116/117 261/116/117 262/116/117
f 276/116/124 275/116/124 278/116/124 277/116/124
